<?xml version="1.0" encoding="utf-8"?>
<!-- Generator: Adobe Illustrator 19.0.0, SVG Export Plug-In . SVG Version: 6.00 Build 0)  -->
<svg version="1.1" id="Layer_1" xmlns="http://www.w3.org/2000/svg" xmlns:xlink="http://www.w3.org/1999/xlink" x="0px" y="0px"
	 viewBox="0 0 226.6 34.1" style="enable-background:new 0 0 226.6 34.1;" xml:space="preserve">
<style type="text/css">
	.st0{fill:#5AC2AD;}
	.st1{fill:#FFFFFF;}
</style>
<rect id="XMLID_1_" y="30.1" class="st0" width="226.6" height="4"/>
<g>
	<path class="st1" d="M2.4,22.1C0.8,20.5,0,18.4,0,15.7S0.8,11,2.5,9.4C4.1,7.8,6.1,7,8.3,7s4.1,1,5.5,2.9V0.5h3.6v23.7h-3.6v-2.6
		c-1.3,1.9-3.3,2.8-5.8,2.8C5.9,24.5,4,23.7,2.4,22.1z M3.6,15.9c0,1.6,0.5,3,1.6,4c1,1,2.3,1.5,3.7,1.5s2.6-0.5,3.6-1.6
		c1-1,1.5-2.4,1.5-4c0-1.6-0.5-3-1.5-4.1c-1-1.1-2.2-1.6-3.6-1.6c-1.4,0-2.7,0.5-3.7,1.6S3.6,14.2,3.6,15.9z"/>
	<path class="st1" d="M22.8,3.9c-0.4-0.4-0.7-1-0.7-1.6s0.2-1.2,0.7-1.6c0.4-0.4,1-0.7,1.6-0.7s1.2,0.2,1.6,0.7s0.7,1,0.7,1.6
		c0,0.6-0.2,1.2-0.7,1.6c-0.4,0.4-1,0.7-1.6,0.7C23.8,4.5,23.3,4.3,22.8,3.9z M26.2,24.3h-3.6v-17h3.6V24.3z"/>
	<path class="st1" d="M38.8,27.9c3.2,0,4.7-2,4.7-6.1v-1c-0.5,0.7-1.2,1.4-2.2,1.9s-2.1,0.8-3.2,0.8c-2.3,0-4.1-0.8-5.6-2.4
		s-2.2-3.5-2.2-5.9c0-2.3,0.7-4.3,2.2-5.9C33.9,7.8,35.8,7,38,7s4.1,0.8,5.6,2.3v-2h3.6v14.6c0,3-0.8,5.2-2.3,6.8
		c-1.5,1.6-3.5,2.4-6,2.4c-1.9,0-3.5-0.4-4.9-1.3s-2.4-2.2-3.1-3.8l3.1-1.3C34.7,26.8,36.4,27.9,38.8,27.9z M33.8,15.1
		c0,1.4,0.4,2.6,1.3,3.6c0.9,1,2,1.5,3.5,1.5c1.5,0,2.6-0.5,3.6-1.5c0.9-1,1.4-2.2,1.4-3.7c0-1.5-0.5-2.7-1.4-3.7
		c-0.9-1-2.1-1.5-3.6-1.5c-1.5,0-2.6,0.5-3.5,1.6C34.3,12.5,33.8,13.7,33.8,15.1z"/>
	<path class="st1" d="M52.5,3.9c-0.4-0.4-0.7-1-0.7-1.6s0.2-1.2,0.7-1.6C53,0.2,53.5,0,54.1,0s1.2,0.2,1.6,0.7
		c0.4,0.4,0.7,1,0.7,1.6c0,0.6-0.2,1.2-0.7,1.6c-0.4,0.4-1,0.7-1.6,0.7C53.5,4.5,53,4.3,52.5,3.9z M55.9,24.3h-3.6v-17h3.6V24.3z"/>
	<path class="st1" d="M64.5,10.1v8.6c0,0.8,0.2,1.5,0.6,1.9c0.4,0.5,1,0.7,1.8,0.7s1.5-0.4,2.2-1.1l1.5,2.5
		c-1.3,1.1-2.7,1.7-4.2,1.7c-1.5,0-2.8-0.5-3.9-1.6s-1.6-2.5-1.6-4.3V1.9h3.6v5.3H69v2.9H64.5z"/>
	<path class="st1" d="M74.8,22.1c-1.6-1.6-2.4-3.8-2.4-6.4s0.8-4.8,2.5-6.3C76.5,7.8,78.4,7,80.6,7s4.1,1.1,5.5,3.2V7.3h3.6v17h-3.6
		v-2.8c-0.7,1-1.6,1.7-2.6,2.3s-2.1,0.8-3.2,0.8C78.2,24.5,76.4,23.7,74.8,22.1z M75.9,15.9c0,1.6,0.5,3,1.6,4c1,1,2.3,1.5,3.7,1.5
		s2.6-0.5,3.6-1.6c1-1,1.5-2.4,1.5-4c0-1.6-0.5-3-1.5-4.1c-1-1.1-2.2-1.6-3.6-1.6c-1.4,0-2.7,0.5-3.7,1.6S75.9,14.2,75.9,15.9z"/>
	<path class="st1" d="M103.5,23.1c-0.9,1-2,1.5-3.6,1.5s-2.8-0.5-3.7-1.4c-0.9-0.9-1.4-2.3-1.4-4.1V1.9h3.6v16.8
		c0,1.7,0.6,2.6,1.9,2.6c0.7,0,1.3-0.3,1.6-0.8L103.5,23.1z"/>
	<path class="st1" d="M122.1,27.9c3.2,0,4.7-2,4.7-6.1v-1c-0.5,0.7-1.2,1.4-2.2,1.9c-1,0.5-2.1,0.8-3.2,0.8c-2.3,0-4.1-0.8-5.6-2.4
		s-2.2-3.5-2.2-5.9c0-2.3,0.7-4.3,2.2-5.9c1.5-1.6,3.3-2.4,5.5-2.4s4.1,0.8,5.6,2.3v-2h3.6v14.6c0,3-0.8,5.2-2.3,6.8
		c-1.5,1.6-3.5,2.4-6,2.4c-1.9,0-3.5-0.4-4.9-1.3c-1.4-0.9-2.4-2.2-3.1-3.8l3.1-1.3C118.1,26.8,119.7,27.9,122.1,27.9z M117.2,15.1
		c0,1.4,0.4,2.6,1.3,3.6c0.9,1,2,1.5,3.5,1.5c1.5,0,2.6-0.5,3.6-1.5s1.4-2.2,1.4-3.7c0-1.5-0.5-2.7-1.4-3.7c-0.9-1-2.1-1.5-3.6-1.5
		c-1.5,0-2.6,0.5-3.5,1.6C117.6,12.5,117.2,13.7,117.2,15.1z"/>
	<path class="st1" d="M137,22.1c-1.6-1.6-2.4-3.8-2.4-6.4s0.8-4.8,2.5-6.3c1.6-1.6,3.6-2.4,5.8-2.4s4.1,1.1,5.5,3.2V7.3h3.6v17h-3.6
		v-2.8c-0.7,1-1.6,1.7-2.6,2.3s-2.1,0.8-3.2,0.8C140.4,24.5,138.6,23.7,137,22.1z M138.1,15.9c0,1.6,0.5,3,1.6,4
		c1,1,2.3,1.5,3.7,1.5s2.6-0.5,3.6-1.6c1-1,1.5-2.4,1.5-4c0-1.6-0.5-3-1.5-4.1s-2.2-1.6-3.6-1.6s-2.7,0.5-3.7,1.6
		S138.1,14.2,138.1,15.9z"/>
	<path class="st1" d="M166.1,10.6c-1.8,0-3.1,0.6-4,1.7c-0.9,1.2-1.3,2.7-1.3,4.6v7.3h-3.6v-17h3.6v3.4c0.6-1.1,1.4-1.9,2.4-2.6
		c1-0.7,2-1,3.2-1.1l0,3.6C166.2,10.6,166.1,10.6,166.1,10.6z"/>
	<path class="st1" d="M171.2,22.1c-1.6-1.6-2.4-3.8-2.4-6.4s0.8-4.8,2.5-6.3c1.6-1.6,3.6-2.4,5.9-2.4c2.3,0,4.1,1,5.5,2.9V0.5h3.6
		v23.7h-3.6v-2.6c-1.3,1.9-3.3,2.8-5.8,2.8C174.6,24.5,172.8,23.7,171.2,22.1z M172.3,15.9c0,1.6,0.5,3,1.6,4c1,1,2.3,1.5,3.7,1.5
		s2.6-0.5,3.6-1.6c1-1,1.5-2.4,1.5-4c0-1.6-0.5-3-1.5-4.1s-2.2-1.6-3.6-1.6s-2.7,0.5-3.7,1.6S172.3,14.2,172.3,15.9z"/>
	<path class="st1" d="M199.1,7c2.3,0,4.3,0.6,5.8,1.9s2.3,3,2.3,5l0,0.1l-12.4,5.2c1.1,1.4,2.6,2,4.5,2c1.9,0,3.5-0.7,4.7-2.2
		l2.1,2.3c-2,2.1-4.4,3.1-7.2,3.1c-2.4,0-4.5-0.8-6.2-2.4c-1.7-1.6-2.6-3.7-2.6-6.3c0-1.8,0.4-3.4,1.3-4.8c0.9-1.4,2-2.4,3.3-3
		C196.2,7.3,197.6,7,199.1,7z M193.7,15.9c0,0.3,0,0.5,0,0.6l9.4-4.1c-0.7-1.4-2-2.1-3.9-2.1c-1.4,0-2.7,0.5-3.9,1.5
		S193.7,14.1,193.7,15.9z"/>
	<path class="st1" d="M214.5,15.1v9.2h-3.6v-17h3.6v3.1c0.6-1,1.4-1.9,2.4-2.5c1-0.6,2.1-0.9,3.3-0.9c1.9,0,3.5,0.6,4.7,1.8
		c1.2,1.2,1.8,2.9,1.8,5.1v10.4H223v-9.3c0-3.1-1.3-4.7-3.9-4.7c-1.2,0-2.3,0.4-3.2,1.2C215,12.3,214.5,13.5,214.5,15.1z"/>
</g>
</svg>
