<?xml version="1.0" encoding="utf-8"?>
<!-- Generator: Adobe Illustrator 16.0.0, SVG Export Plug-In . SVG Version: 6.00 Build 0)  -->
<!DOCTYPE svg PUBLIC "-//W3C//DTD SVG 1.1//EN" "http://www.w3.org/Graphics/SVG/1.1/DTD/svg11.dtd">
<svg version="1.1" id="Layer_1" xmlns="http://www.w3.org/2000/svg" xmlns:xlink="http://www.w3.org/1999/xlink" x="0px" y="0px"
	 width="226.621px" height="31.072px" viewBox="0 0 226.621 31.072" enable-background="new 0 0 226.621 31.072"
	 xml:space="preserve">
<g>
	<path fill="#36D7B7" d="M2.4,22.112c-1.6-1.621-2.4-3.755-2.4-6.4c0-2.645,0.821-4.757,2.464-6.336
		c1.643-1.578,3.6-2.368,5.872-2.368s4.101,0.96,5.488,2.88V0.544h3.584v23.744h-3.584v-2.56c-1.323,1.877-3.253,2.815-5.792,2.815
		C5.877,24.544,4,23.733,2.4,22.112z M3.584,15.856c0,1.632,0.522,2.96,1.568,3.983c1.045,1.024,2.272,1.536,3.68,1.536
		c1.408,0,2.603-0.517,3.584-1.552c0.981-1.034,1.472-2.362,1.472-3.984c0-1.621-0.491-2.976-1.472-4.063
		c-0.981-1.088-2.187-1.632-3.616-1.632c-1.43,0-2.656,0.544-3.68,1.632S3.584,14.224,3.584,15.856z"/>
	<path fill="#36D7B7" d="M22.816,3.872c-0.448-0.448-0.672-0.981-0.672-1.6c0-0.619,0.224-1.152,0.672-1.601
		C23.264,0.224,23.797,0,24.416,0c0.619,0,1.152,0.224,1.6,0.672c0.448,0.448,0.672,0.981,0.672,1.601
		c0,0.618-0.224,1.151-0.672,1.6c-0.448,0.448-0.981,0.672-1.6,0.672C23.797,4.544,23.264,4.32,22.816,3.872z M26.176,24.288h-3.584
		V7.264h3.584V24.288z"/>
	<path fill="#36D7B7" d="M38.784,27.904c3.157,0,4.736-2.038,4.736-6.112v-0.96c-0.469,0.747-1.211,1.382-2.224,1.904
		s-2.096,0.784-3.248,0.784c-2.261,0-4.117-0.789-5.568-2.368s-2.176-3.541-2.176-5.889c0-2.346,0.725-4.309,2.176-5.888
		c1.451-1.578,3.28-2.368,5.488-2.368s4.058,0.769,5.552,2.305V7.264h3.584v14.624c0,2.966-0.773,5.237-2.32,6.816
		c-1.547,1.578-3.547,2.368-6,2.368c-1.877,0-3.525-0.448-4.944-1.344c-1.419-0.896-2.448-2.177-3.088-3.841l3.136-1.344
		C34.741,26.784,36.373,27.904,38.784,27.904z M33.824,15.12c0,1.397,0.432,2.603,1.296,3.616c0.864,1.014,2.026,1.52,3.488,1.52
		c1.461,0,2.645-0.49,3.552-1.472c0.906-0.981,1.36-2.202,1.36-3.664c0-1.461-0.459-2.698-1.376-3.712
		c-0.917-1.013-2.102-1.521-3.552-1.521c-1.451,0-2.608,0.523-3.472,1.568C34.255,12.502,33.824,13.723,33.824,15.12z"/>
	<path fill="#36D7B7" d="M52.511,3.872c-0.448-0.448-0.672-0.981-0.672-1.6c0-0.619,0.224-1.152,0.672-1.601
		C52.959,0.224,53.492,0,54.111,0c0.619,0,1.152,0.224,1.6,0.672c0.448,0.448,0.672,0.981,0.672,1.601
		c0,0.618-0.224,1.151-0.672,1.6c-0.448,0.448-0.981,0.672-1.6,0.672C53.492,4.544,52.959,4.32,52.511,3.872z M55.871,24.288h-3.584
		V7.264h3.584V24.288z"/>
	<path fill="#36D7B7" d="M64.479,10.145v8.64c0,0.811,0.213,1.456,0.64,1.936c0.427,0.48,1.024,0.721,1.792,0.721
		c0.768,0,1.504-0.373,2.208-1.12l1.472,2.527c-1.259,1.132-2.651,1.696-4.176,1.696c-1.526,0-2.827-0.528-3.904-1.584
		s-1.616-2.479-1.616-4.271V1.92h3.584v5.344h4.48v2.881H64.479z"/>
	<path fill="#36D7B7" d="M74.75,22.112c-1.6-1.621-2.4-3.755-2.4-6.4c0-2.645,0.821-4.757,2.464-6.336
		c1.643-1.578,3.584-2.368,5.824-2.368s4.085,1.067,5.536,3.2V7.264h3.584v17.024h-3.584v-2.784
		c-0.683,0.981-1.552,1.733-2.608,2.256c-1.056,0.523-2.118,0.784-3.184,0.784C78.228,24.544,76.351,23.733,74.75,22.112z
		 M75.935,15.856c0,1.632,0.522,2.96,1.568,3.983c1.045,1.024,2.272,1.536,3.68,1.536c1.408,0,2.603-0.517,3.584-1.552
		c0.981-1.034,1.472-2.362,1.472-3.984c0-1.621-0.491-2.976-1.472-4.063c-0.981-1.088-2.187-1.632-3.616-1.632
		c-1.43,0-2.656,0.544-3.68,1.632S75.935,14.224,75.935,15.856z"/>
	<path fill="#36D7B7" d="M103.455,23.072c-0.854,0.981-2.048,1.472-3.584,1.472s-2.768-0.458-3.696-1.376
		c-0.928-0.917-1.392-2.271-1.392-4.063V1.92h3.584v16.769c0,1.707,0.64,2.56,1.92,2.56c0.747,0,1.28-0.267,1.6-0.8L103.455,23.072z
		"/>
	<path fill="#36D7B7" d="M122.143,27.904c3.156,0,4.735-2.038,4.735-6.112v-0.96c-0.47,0.747-1.211,1.382-2.224,1.904
		c-1.014,0.522-2.096,0.784-3.248,0.784c-2.262,0-4.117-0.789-5.568-2.368s-2.176-3.541-2.176-5.889
		c0-2.346,0.725-4.309,2.176-5.888c1.451-1.578,3.28-2.368,5.488-2.368s4.059,0.769,5.552,2.305V7.264h3.584v14.624
		c0,2.966-0.773,5.237-2.319,6.816c-1.547,1.578-3.547,2.368-6,2.368c-1.878,0-3.525-0.448-4.945-1.344
		c-1.418-0.896-2.447-2.177-3.088-3.841l3.137-1.344C118.1,26.784,119.73,27.904,122.143,27.904z M117.182,15.12
		c0,1.397,0.432,2.603,1.297,3.616c0.863,1.014,2.025,1.52,3.487,1.52c1.461,0,2.646-0.49,3.552-1.472s1.36-2.202,1.36-3.664
		c0-1.461-0.459-2.698-1.376-3.712c-0.918-1.013-2.102-1.521-3.552-1.521c-1.451,0-2.608,0.523-3.472,1.568
		C117.613,12.502,117.182,13.723,117.182,15.12z"/>
	<path fill="#36D7B7" d="M136.957,22.112c-1.6-1.621-2.399-3.755-2.399-6.4c0-2.645,0.821-4.757,2.464-6.336
		c1.643-1.578,3.584-2.368,5.824-2.368s4.085,1.067,5.536,3.2V7.264h3.584v17.024h-3.584v-2.784
		c-0.684,0.981-1.552,1.733-2.608,2.256c-1.056,0.523-2.117,0.784-3.184,0.784C140.435,24.544,138.558,23.733,136.957,22.112z
		 M138.142,15.856c0,1.632,0.522,2.96,1.568,3.983c1.045,1.024,2.271,1.536,3.68,1.536s2.603-0.517,3.584-1.552
		c0.981-1.034,1.472-2.362,1.472-3.984c0-1.621-0.49-2.976-1.472-4.063s-2.187-1.632-3.616-1.632s-2.655,0.544-3.68,1.632
		S138.142,14.224,138.142,15.856z"/>
	<path fill="#36D7B7" d="M166.077,10.624c-1.771,0-3.104,0.576-4,1.729c-0.896,1.151-1.344,2.698-1.344,4.64v7.296h-3.584V7.264
		h3.584v3.425c0.576-1.066,1.36-1.941,2.353-2.624c0.991-0.683,2.042-1.035,3.151-1.057l0.032,3.616
		C166.206,10.624,166.142,10.624,166.077,10.624z"/>
	<path fill="#36D7B7" d="M171.165,22.112c-1.601-1.621-2.4-3.755-2.4-6.4c0-2.645,0.821-4.757,2.464-6.336
		c1.643-1.578,3.601-2.368,5.872-2.368c2.272,0,4.102,0.96,5.488,2.88V0.544h3.584v23.744h-3.584v-2.56
		c-1.323,1.877-3.254,2.815-5.792,2.815C174.642,24.544,172.765,23.733,171.165,22.112z M172.349,15.856
		c0,1.632,0.522,2.96,1.568,3.983c1.045,1.024,2.271,1.536,3.68,1.536s2.603-0.517,3.584-1.552c0.981-1.034,1.472-2.362,1.472-3.984
		c0-1.621-0.49-2.976-1.472-4.063s-2.187-1.632-3.616-1.632s-2.655,0.544-3.68,1.632S172.349,14.224,172.349,15.856z"/>
	<path fill="#36D7B7" d="M199.101,7.008c2.325,0,4.256,0.646,5.792,1.937s2.314,2.971,2.336,5.04l0.032,0.063l-12.416,5.216
		c1.109,1.366,2.618,2.049,4.528,2.049c1.908,0,3.482-0.747,4.72-2.24l2.112,2.336c-2.027,2.091-4.416,3.136-7.168,3.136
		c-2.411,0-4.48-0.8-6.208-2.399c-1.729-1.601-2.593-3.713-2.593-6.337c0-1.813,0.448-3.407,1.345-4.783
		c0.896-1.376,2.005-2.39,3.327-3.04C196.231,7.334,197.629,7.008,199.101,7.008z M193.692,15.872c0,0.277,0.011,0.48,0.032,0.608
		l9.44-4.064c-0.726-1.408-2.017-2.112-3.872-2.112c-1.408,0-2.693,0.491-3.856,1.473S193.692,14.123,193.692,15.872z"/>
	<path fill="#36D7B7" d="M214.524,15.072v9.216h-3.584V7.264h3.584v3.104c0.576-1.045,1.371-1.866,2.384-2.464
		c1.014-0.598,2.106-0.896,3.28-0.896c1.92,0,3.472,0.587,4.656,1.761c1.184,1.173,1.776,2.869,1.776,5.088v10.432h-3.584v-9.344
		c0-3.137-1.302-4.704-3.904-4.704c-1.237,0-2.315,0.411-3.232,1.231C214.983,12.294,214.524,13.493,214.524,15.072z"/>
</g>
</svg>
