<?xml version="1.0" encoding="utf-8"?>
<!-- Generator: Adobe Illustrator 19.0.0, SVG Export Plug-In . SVG Version: 6.00 Build 0)  -->
<svg version="1.1" id="Layer_1" xmlns="http://www.w3.org/2000/svg" xmlns:xlink="http://www.w3.org/1999/xlink" x="0px" y="0px"
	 viewBox="-192 379.9 226.6 34.1" style="enable-background:new -192 379.9 226.6 34.1;" xml:space="preserve">
<style type="text/css">
	.st0{fill:#5AC2AD;}
	.st1{fill:#FFFFFF;}
</style>
<rect id="XMLID_1_" x="-192" y="410" class="st0" width="226.6" height="4"/>
<g>
	<path class="st1" d="M-189.6,402c-1.6-1.6-2.4-3.7-2.4-6.4c0-2.7,0.8-4.7,2.5-6.3c1.6-1.6,3.6-2.4,5.8-2.4s4.1,1,5.5,2.9v-9.4h3.6
		v23.7h-3.6v-2.6c-1.3,1.9-3.3,2.8-5.8,2.8C-186.1,404.4-188,403.6-189.6,402z M-188.4,395.8c0,1.6,0.5,3,1.6,4c1,1,2.3,1.5,3.7,1.5
		c1.4,0,2.6-0.5,3.6-1.6c1-1,1.5-2.4,1.5-4c0-1.6-0.5-3-1.5-4.1c-1-1.1-2.2-1.6-3.6-1.6c-1.4,0-2.7,0.5-3.7,1.6
		C-187.8,392.7-188.4,394.1-188.4,395.8z"/>
	<path class="st1" d="M-169.2,383.8c-0.4-0.4-0.7-1-0.7-1.6c0-0.6,0.2-1.2,0.7-1.6c0.4-0.4,1-0.7,1.6-0.7c0.6,0,1.2,0.2,1.6,0.7
		s0.7,1,0.7,1.6c0,0.6-0.2,1.2-0.7,1.6c-0.4,0.4-1,0.7-1.6,0.7C-168.2,384.4-168.7,384.2-169.2,383.8z M-165.8,404.2h-3.6v-17h3.6
		V404.2z"/>
	<path class="st1" d="M-153.2,407.8c3.2,0,4.7-2,4.7-6.1v-1c-0.5,0.7-1.2,1.4-2.2,1.9s-2.1,0.8-3.2,0.8c-2.3,0-4.1-0.8-5.6-2.4
		s-2.2-3.5-2.2-5.9c0-2.3,0.7-4.3,2.2-5.9c1.4-1.5,3.3-2.3,5.5-2.3s4.1,0.8,5.6,2.3v-2h3.6v14.6c0,3-0.8,5.2-2.3,6.8
		c-1.5,1.6-3.5,2.4-6,2.4c-1.9,0-3.5-0.4-4.9-1.3c-1.4-0.9-2.4-2.2-3.1-3.8l3.1-1.3C-157.3,406.7-155.6,407.8-153.2,407.8z
		 M-158.2,395c0,1.4,0.4,2.6,1.3,3.6c0.9,1,2,1.5,3.5,1.5s2.6-0.5,3.6-1.5c0.9-1,1.4-2.2,1.4-3.7s-0.5-2.7-1.4-3.7s-2.1-1.5-3.6-1.5
		s-2.6,0.5-3.5,1.6C-157.7,392.4-158.2,393.6-158.2,395z"/>
	<path class="st1" d="M-139.5,383.8c-0.4-0.4-0.7-1-0.7-1.6c0-0.6,0.2-1.2,0.7-1.6c0.5-0.5,1-0.7,1.6-0.7c0.6,0,1.2,0.2,1.6,0.7
		c0.4,0.4,0.7,1,0.7,1.6c0,0.6-0.2,1.2-0.7,1.6c-0.4,0.4-1,0.7-1.6,0.7C-138.5,384.4-139,384.2-139.5,383.8z M-136.1,404.2h-3.6v-17
		h3.6V404.2z"/>
	<path class="st1" d="M-127.5,390v8.6c0,0.8,0.2,1.5,0.6,1.9c0.4,0.5,1,0.7,1.8,0.7s1.5-0.4,2.2-1.1l1.5,2.5
		c-1.3,1.1-2.7,1.7-4.2,1.7s-2.8-0.5-3.9-1.6c-1.1-1.1-1.6-2.5-1.6-4.3v-16.6h3.6v5.3h4.5v2.9H-127.5z"/>
	<path class="st1" d="M-117.2,402c-1.6-1.6-2.4-3.8-2.4-6.4c0-2.6,0.8-4.8,2.5-6.3c1.6-1.6,3.5-2.4,5.7-2.4s4.1,1.1,5.5,3.2v-2.9
		h3.6v17h-3.6v-2.8c-0.7,1-1.6,1.7-2.6,2.3c-1,0.6-2.1,0.8-3.2,0.8C-113.8,404.4-115.6,403.6-117.2,402z M-116.1,395.8
		c0,1.6,0.5,3,1.6,4c1,1,2.3,1.5,3.7,1.5s2.6-0.5,3.6-1.6c1-1,1.5-2.4,1.5-4c0-1.6-0.5-3-1.5-4.1c-1-1.1-2.2-1.6-3.6-1.6
		s-2.7,0.5-3.7,1.6C-115.5,392.7-116.1,394.1-116.1,395.8z"/>
	<path class="st1" d="M-88.5,403c-0.9,1-2,1.5-3.6,1.5s-2.8-0.5-3.7-1.4c-0.9-0.9-1.4-2.3-1.4-4.1v-17.2h3.6v16.8
		c0,1.7,0.6,2.6,1.9,2.6c0.7,0,1.3-0.3,1.6-0.8L-88.5,403z"/>
	<path class="st1" d="M-69.9,407.8c3.2,0,4.7-2,4.7-6.1v-1c-0.5,0.7-1.2,1.4-2.2,1.9s-2.1,0.8-3.2,0.8c-2.3,0-4.1-0.8-5.6-2.4
		s-2.2-3.5-2.2-5.9c0-2.3,0.7-4.3,2.2-5.9c1.5-1.6,3.3-2.4,5.5-2.4s4.1,0.8,5.6,2.3v-2h3.6v14.6c0,3-0.8,5.2-2.3,6.8s-3.5,2.4-6,2.4
		c-1.9,0-3.5-0.4-4.9-1.3c-1.4-0.9-2.4-2.2-3.1-3.8l3.1-1.3C-73.9,406.7-72.3,407.8-69.9,407.8z M-74.8,395c0,1.4,0.4,2.6,1.3,3.6
		s2,1.5,3.5,1.5s2.6-0.5,3.6-1.5s1.4-2.2,1.4-3.7s-0.5-2.7-1.4-3.7s-2.1-1.5-3.6-1.5s-2.6,0.5-3.5,1.6S-74.8,393.6-74.8,395z"/>
	<path class="st1" d="M-55,402c-1.6-1.6-2.4-3.8-2.4-6.4c0-2.6,0.8-4.8,2.5-6.3c1.6-1.6,3.6-2.4,5.8-2.4s4.1,1.1,5.5,3.2v-2.9h3.6
		v17h-3.6v-2.8c-0.7,1-1.6,1.7-2.6,2.3c-1,0.6-2.1,0.8-3.2,0.8C-51.6,404.4-53.4,403.6-55,402z M-53.9,395.8c0,1.6,0.5,3,1.6,4
		c1,1,2.3,1.5,3.7,1.5s2.6-0.5,3.6-1.6c1-1,1.5-2.4,1.5-4c0-1.6-0.5-3-1.5-4.1c-1-1.1-2.2-1.6-3.6-1.6s-2.7,0.5-3.7,1.6
		C-53.3,392.7-53.9,394.1-53.9,395.8z"/>
	<path class="st1" d="M-25.9,390.5c-1.8,0-3.1,0.6-4,1.7c-0.9,1.2-1.3,2.7-1.3,4.6v7.3h-3.6v-17h3.6v3.4c0.6-1.1,1.4-1.9,2.4-2.6
		s2-1,3.2-1.1v3.6C-25.8,390.5-25.9,390.5-25.9,390.5z"/>
	<path class="st1" d="M-20.8,402c-1.6-1.6-2.4-3.8-2.4-6.4c0-2.6,0.8-4.8,2.5-6.3c1.6-1.6,3.6-2.4,5.9-2.4c2.3,0,4.1,1,5.5,2.9v-9.4
		h3.6v23.7h-3.6v-2.6c-1.3,1.9-3.3,2.8-5.8,2.8C-17.4,404.4-19.2,403.6-20.8,402z M-19.7,395.8c0,1.6,0.5,3,1.6,4
		c1,1,2.3,1.5,3.7,1.5s2.6-0.5,3.6-1.6c1-1,1.5-2.4,1.5-4c0-1.6-0.5-3-1.5-4.1c-1-1.1-2.2-1.6-3.6-1.6s-2.7,0.5-3.7,1.6
		C-19.1,392.7-19.7,394.1-19.7,395.8z"/>
	<path class="st1" d="M7.1,386.9c2.3,0,4.3,0.6,5.8,1.9c1.5,1.3,2.3,3,2.3,5v0.1l-12.4,5.2c1.1,1.4,2.6,2,4.5,2s3.5-0.7,4.7-2.2
		l2.1,2.3c-2,2.1-4.4,3.1-7.2,3.1c-2.4,0-4.5-0.8-6.2-2.4s-2.6-3.7-2.6-6.3c0-1.8,0.4-3.4,1.3-4.8c0.9-1.4,2-2.4,3.3-3
		C4.2,387.2,5.6,386.9,7.1,386.9z M1.7,395.8c0,0.3,0,0.5,0,0.6l9.4-4.1c-0.7-1.4-2-2.1-3.9-2.1c-1.4,0-2.7,0.5-3.9,1.5
		S1.7,394,1.7,395.8z"/>
	<path class="st1" d="M22.5,395v9.2h-3.6v-17h3.6v3.1c0.6-1,1.4-1.9,2.4-2.5s2.1-0.9,3.3-0.9c1.9,0,3.5,0.6,4.7,1.8
		c1.2,1.2,1.8,2.9,1.8,5.1v10.4H31v-9.3c0-3.1-1.3-4.7-3.9-4.7c-1.2,0-2.3,0.4-3.2,1.2C23,392.2,22.5,393.4,22.5,395z"/>
</g>
</svg>
