<?xml version="1.0" encoding="utf-8"?>
<!-- Generator: Adobe Illustrator 19.0.0, SVG Export Plug-In . SVG Version: 6.00 Build 0)  -->
<svg version="1.1" id="Layer_1" xmlns="http://www.w3.org/2000/svg" xmlns:xlink="http://www.w3.org/1999/xlink" x="0px" y="0px"
	 viewBox="0 0 160.8 160.8" style="enable-background:new 0 0 160.8 160.8;" xml:space="preserve">
<style type="text/css">
	.st0{fill:#FFFFFF;}
</style>
<path id="XMLID_10_" class="st0" d="M0,0v160.8h160.8V0H0z M64.6,65.8l12.3-14.1v6c0,0.5-0.1,0.9-0.2,1.2c-0.1,0.4-0.3,0.7-0.5,1
	l-5.6,6.3c-0.2,0.3-0.5,0.5-0.7,0.7c-0.3,0.2-0.5,0.4-0.8,0.5c0.3,0.2,0.6,0.3,0.8,0.5c0.3,0.2,0.5,0.4,0.7,0.7l5.6,6.4
	c0.2,0.3,0.4,0.6,0.5,1c0.1,0.4,0.2,0.8,0.2,1.2v6L64.6,69.2V65.8z M81.5,109.1h-2.1L68.1,87.3h3.6c0.3,0,0.6,0.1,0.8,0.2
	c0.2,0.2,0.4,0.4,0.6,0.8l6.4,12.6c0.2,0.4,0.4,0.8,0.5,1.2c0.1,0.4,0.3,0.9,0.4,1.3c0.1-0.5,0.2-0.9,0.4-1.3
	c0.1-0.4,0.3-0.8,0.5-1.2l6.4-12.6c0.2-0.4,0.4-0.6,0.6-0.8c0.2-0.1,0.5-0.2,0.8-0.2h3.6L81.5,109.1z M96.2,69.2l-1.5,1.7l0,0
	L84,83.3v-6c0-0.5,0.1-0.9,0.2-1.2c0.1-0.4,0.3-0.7,0.5-1l5.6-6.4c0.5-0.5,1-0.9,1.6-1.2c-0.3-0.2-0.6-0.3-0.8-0.5
	c-0.3-0.2-0.5-0.4-0.8-0.7l-5.6-6.3c-0.2-0.3-0.4-0.6-0.5-1C84,58.6,84,58.2,84,57.7v-6l12.3,14.1V69.2z"/>
</svg>
