<?xml version="1.0" encoding="utf-8"?>
<!-- Generator: Adobe Illustrator 19.0.0, SVG Export Plug-In . SVG Version: 6.00 Build 0)  -->
<svg version="1.1" id="Layer_1" xmlns="http://www.w3.org/2000/svg" xmlns:xlink="http://www.w3.org/1999/xlink" x="0px" y="0px"
	 viewBox="0 0 160.8 160.8" style="enable-background:new 0 0 160.8 160.8;" xml:space="preserve">
<style type="text/css">
	.st0{fill:#FFFFFF;}
	.st1{fill:#5AC2AD;}
	.st2{fill:#2A8A76;}
</style>
<rect id="XMLID_1_" class="st0" width="160.8" height="160.8"/>
<g>
	<g>
		<g>
			<path id="XMLID_6_" class="st1" d="M64.6,65.8l12.3-14.1v6c0,0.5-0.1,0.9-0.2,1.2c-0.1,0.4-0.3,0.7-0.5,1l-5.6,6.3
				c-0.2,0.3-0.5,0.5-0.7,0.7c-0.3,0.2-0.5,0.4-0.8,0.5c0.3,0.2,0.6,0.3,0.8,0.5c0.3,0.2,0.5,0.4,0.7,0.7l5.6,6.4
				c0.2,0.3,0.4,0.6,0.5,1c0.1,0.4,0.2,0.8,0.2,1.2v6L64.6,69.2V65.8z"/>
			<path id="XMLID_5_" class="st1" d="M84,83.3v-6c0-0.5,0.1-0.9,0.2-1.2c0.1-0.4,0.3-0.7,0.5-1l5.6-6.4c0.5-0.5,1-0.9,1.6-1.2
				c-0.3-0.2-0.6-0.3-0.8-0.5c-0.3-0.2-0.5-0.4-0.8-0.7l-5.6-6.3c-0.2-0.3-0.4-0.6-0.5-1C84,58.6,84,58.2,84,57.7v-6l12.3,14.1v3.4
				L84,83.3z"/>
		</g>
		<g>
			<path id="XMLID_4_" class="st1" d="M79.4,109.1L68.1,87.3h3.6c0.3,0,0.6,0.1,0.8,0.2c0.2,0.2,0.4,0.4,0.6,0.8l6.4,12.6
				c0.2,0.4,0.4,0.8,0.5,1.2c0.1,0.4,0.3,0.9,0.4,1.3c0.1-0.5,0.2-0.9,0.4-1.3c0.1-0.4,0.3-0.8,0.5-1.2l6.4-12.6
				c0.2-0.4,0.4-0.6,0.6-0.8c0.2-0.2,0.5-0.2,0.8-0.2h3.6l-11.3,21.8H79.4z"/>
		</g>
	</g>
	<polygon id="XMLID_3_" class="st2" points="69,67.5 64.6,69.2 66.1,70.9 	"/>
	<polygon id="XMLID_2_" class="st2" points="91.9,67.5 96.2,69.2 94.8,70.9 	"/>
</g>
</svg>
