<?xml version="1.0" encoding="utf-8"?>
<!-- Generator: Adobe Illustrator 19.0.0, SVG Export Plug-In . SVG Version: 6.00 Build 0)  -->
<svg version="1.1" id="Layer_1" xmlns="http://www.w3.org/2000/svg" xmlns:xlink="http://www.w3.org/1999/xlink" x="0px" y="0px"
	 viewBox="-9 10.2 160.8 160.8" style="enable-background:new -9 10.2 160.8 160.8;" xml:space="preserve">
<style type="text/css">
	.st0{opacity:0.9;fill:#FFFFFF;}
	.st1{fill:#5AC2AD;}
	.st2{fill:#2A8A76;}
</style>
<rect id="XMLID_1_" x="-9" y="10.2" class="st0" width="160.8" height="160.8"/>
<g>
	<g>
		<g>
			<path id="XMLID_6_" class="st1" d="M55.6,76l12.3-14.1v6c0,0.5-0.1,0.9-0.2,1.2c-0.1,0.4-0.3,0.7-0.5,1l-5.6,6.3
				c-0.2,0.3-0.5,0.5-0.7,0.7c-0.3,0.2-0.5,0.4-0.8,0.5c0.3,0.2,0.6,0.3,0.8,0.5c0.3,0.2,0.5,0.4,0.7,0.7l5.6,6.4
				c0.2,0.3,0.4,0.6,0.5,1s0.2,0.8,0.2,1.2v6l-12.3-14V76z"/>
			<path id="XMLID_5_" class="st1" d="M75,93.5v-6c0-0.5,0.1-0.9,0.2-1.2c0.1-0.4,0.3-0.7,0.5-1l5.6-6.4c0.5-0.5,1-0.9,1.6-1.2
				c-0.3-0.2-0.6-0.3-0.8-0.5c-0.3-0.2-0.5-0.4-0.8-0.7l-5.6-6.3c-0.2-0.3-0.4-0.6-0.5-1C75,68.8,75,68.4,75,67.9v-6L87.3,76v3.4
				L75,93.5z"/>
		</g>
		<g>
			<path id="XMLID_4_" class="st1" d="M70.4,119.3L59.1,97.5h3.6c0.3,0,0.6,0.1,0.8,0.2c0.2,0.2,0.4,0.4,0.6,0.8l6.4,12.6
				c0.2,0.4,0.4,0.8,0.5,1.2c0.1,0.4,0.3,0.9,0.4,1.3c0.1-0.5,0.2-0.9,0.4-1.3c0.1-0.4,0.3-0.8,0.5-1.2l6.4-12.6
				c0.2-0.4,0.4-0.6,0.6-0.8c0.2-0.2,0.5-0.2,0.8-0.2h3.6l-11.3,21.8C72.4,119.3,70.4,119.3,70.4,119.3z"/>
		</g>
	</g>
	<polygon id="XMLID_3_" class="st2" points="60,77.7 55.6,79.4 57.1,81.1 	"/>
	<polygon id="XMLID_2_" class="st2" points="82.9,77.7 87.2,79.4 85.8,81.1 	"/>
</g>
</svg>
